<svg width="1440" height="1024" viewBox="0 0 1440 1024" fill="none" xmlns="http://www.w3.org/2000/svg">
<g clip-path="url(#clip0_2686_8)">
<path d="M319.222 -307.095C391.682 -267.225 454.976 -207.464 509.758 -148.566C589.461 -62.7873 663.162 32.2483 760.791 98.7048C855.092 162.876 962.894 214.796 1068.83 256.13C1314.04 351.436 1771.94 405.302 1751.56 763.866C1743.4 905.386 1636.28 1013.66 1524.8 1088.96C1399.68 1173.4 1256.77 1240.93 1106.33 1242.02C876.731 1243.74 723.27 1076.41 678.028 862.113C656.298 758.97 689.111 649.121 715.843 549.217C741.206 453.929 849.317 193.624 752.321 110.908C670.904 41.4868 511.524 96.4847 422.19 117.913C291.652 149.197 164.622 192.689 29.5168 201.104C-177.204 213.959 -207.881 -72.5888 -124.743 -207.96C-64.3674 -306.008 51.0054 -361.516 166.654 -354.147C221.275 -350.513 272.205 -332.929 319.222 -307.095Z" fill="#292C6C"/>
</g>
<defs>
<clipPath id="clip0_2686_8">
<rect width="1440" height="1024" fill="white"/>
</clipPath>
</defs>
</svg>
